# xmcd
#
# Track frame offsets:
#	150
#	16075
#	35135
#	54565
#	72847
#	90325
#	109705
#	125122
#	142007
#	159887
#	177097
#	198415
#
# Disc length: 2848 seconds
#
# Revision: 6
# Processed by: cddbd v1.5.2PL0 Copyright (c) Steve Scherf et al.
# Submitted via: EasyCDDAExtractor 15.3.0.1
#
DISCID=9e0b1e0c
DTITLE=Yolandita Monge - Siento
DYEAR=1999
DGENRE=Latin
TTITLE0=Los Celos
TTITLE1=Dime
TTITLE2=Vibraciones Positivas
TTITLE3=A Veces El Amor Se Desintegra
TTITLE4=Ya No Hay Amor
TTITLE5=Mala Sangre (No Podran Conmigo)
TTITLE6=Como Lluvia De Los Cielos
TTITLE7=No Es Natural
TTITLE8=Arriesgare La Piel
TTITLE9=Ayer Te Vi
TTITLE10=Prohibido
TTITLE11=Libre
EXTD=
EXTT0=
EXTT1=
EXTT2=
EXTT3=
EXTT4=
EXTT5=
EXTT6=
EXTT7=
EXTT8=
EXTT9=
EXTT10=
EXTT11=
PLAYORDER=
